<svg width="105" height="21" fill="none" xmlns="http://www.w3.org/2000/svg"><path fill-rule="evenodd" clip-rule="evenodd" d="M1.17 18.688c.8.8 1.898 1.2 3.293 1.2H8.37v-3.016H5.078c-.472 0-.851-.143-1.138-.43-.288-.308-.431-.698-.431-1.17V7.211H8.4V4.195H3.51V.257H0v3.938H0v3.016h.001v8.215c0 1.374.39 2.461 1.17 3.261zM11.604 8.656v11.23h3.539V8.811c0-.493.133-.882.4-1.17.287-.287.677-.43 1.17-.43h3.138V4.195h-3.785c-1.395 0-2.492.4-3.292 1.2-.78.78-1.17 1.867-1.17 3.262zm18.208 11.6c-1.518 0-2.84-.298-3.97-.893-1.127-.615-2-1.456-2.614-2.523-.616-1.066-.924-2.266-.924-3.6V4.195h3.539v9.016c0 .8.174 1.507.523 2.123.37.595.851 1.066 1.446 1.415a4.184 4.184 0 002 .492c.718 0 1.374-.164 1.97-.492a3.834 3.834 0 001.445-1.415c.37-.616.554-1.323.554-2.123V4.195h3.539v9.046c0 1.334-.318 2.534-.954 3.6-.615 1.067-1.487 1.908-2.615 2.523-1.108.595-2.42.893-3.939.893zm16.276-.677a3.82 3.82 0 002.216.677 3.82 3.82 0 002.215-.677 3.592 3.592 0 001.385-1.816l4.83-13.569H52.95L48.827 16.38a.499.499 0 01-.216.308.45.45 0 01-.276.092.45.45 0 01-.277-.093.74.74 0 01-.216-.307L43.75 4.195h-3.846l4.8 13.57a3.833 3.833 0 001.384 1.815zm26.828-2.955c-.544.214-1.184.32-1.92.32h-1.568V7.761h1.552c.79 0 1.462.112 2.016.336.566.214 1.024.523 1.376.928.363.395.624.87.784 1.424a6.02 6.02 0 01.256 1.808v.128c0 .704-.096 1.34-.288 1.904a3.722 3.722 0 01-.832 1.424 3.576 3.576 0 01-1.376.912zM71.06 6.641h-3.024v11.44h2.992c1.003 0 1.867-.144 2.592-.432.736-.298 1.344-.704 1.824-1.216a4.735 4.735 0 001.056-1.808 6.89 6.89 0 00.352-2.224v-.144c0-.8-.117-1.54-.352-2.224a4.778 4.778 0 00-1.072-1.776c-.48-.5-1.082-.896-1.808-1.184-.725-.288-1.579-.432-2.56-.432zm12.832 10.256c-.341.15-.72.224-1.136.224-.853 0-1.525-.282-2.016-.848-.48-.576-.72-1.344-.72-2.304v-.128c0-.48.064-.912.192-1.296.128-.394.31-.73.544-1.008.235-.277.523-.49.864-.64.342-.149.72-.224 1.136-.224.416 0 .79.075 1.12.224.342.15.63.363.864.64.246.278.432.614.56 1.008.128.395.192.832.192 1.312v.112c0 .47-.064.902-.192 1.296-.128.384-.31.715-.544.992-.234.278-.522.491-.864.64zm-2.8 1.008c.502.214 1.05.32 1.648.32.598 0 1.147-.1 1.648-.304a3.93 3.93 0 001.296-.88c.374-.373.662-.82.864-1.344.214-.533.32-1.114.32-1.744v-.128c0-.629-.106-1.205-.32-1.728a3.955 3.955 0 00-.848-1.344 3.704 3.704 0 00-1.312-.864 4.125 4.125 0 00-1.632-.32c-.597 0-1.146.107-1.648.32a3.631 3.631 0 00-1.296.88c-.362.374-.65.822-.864 1.344a4.742 4.742 0 00-.304 1.728v.128c0 .608.102 1.174.304 1.696.203.523.486.976.848 1.36.363.374.795.667 1.296.88zm11.508.32c-.587 0-1.131-.096-1.632-.288a4.074 4.074 0 01-1.296-.848 4.162 4.162 0 01-.864-1.344c-.203-.522-.304-1.109-.304-1.76v-.128c0-.64.106-1.22.32-1.744.213-.533.501-.986.864-1.36a3.947 3.947 0 011.296-.864 3.93 3.93 0 011.584-.32c.437 0 .858.054 1.264.16.416.107.784.278 1.104.512.33.224.608.523.832.896.224.374.368.827.432 1.36h-1.312c-.107-.66-.379-1.13-.816-1.408-.427-.277-.928-.416-1.504-.416-.384 0-.742.075-1.072.224-.32.15-.603.363-.848.64a2.976 2.976 0 00-.56.992 3.99 3.99 0 00-.208 1.328v.128c0 1.035.25 1.82.752 2.352.512.523 1.173.784 1.984.784.298 0 .581-.042.848-.128a2.2 2.2 0 00.736-.384c.224-.17.405-.384.544-.64.149-.256.24-.554.272-.896h1.232c-.043.448-.166.87-.368 1.264a3.182 3.182 0 01-.768.992c-.32.278-.694.496-1.12.656-.427.16-.891.24-1.392.24zm6.064-.704c.576.47 1.365.704 2.368.704 1.024 0 1.792-.229 2.304-.688.512-.469.768-1.088.768-1.856 0-.448-.075-.81-.224-1.088a1.651 1.651 0 00-.608-.688 2.852 2.852 0 00-.928-.416 13.768 13.768 0 00-1.184-.288 8.494 8.494 0 01-.96-.208 2.828 2.828 0 01-.592-.272.984.984 0 01-.32-.352 1.382 1.382 0 01-.08-.496c0-.362.144-.65.432-.864.288-.224.672-.336 1.152-.336.533 0 .933.107 1.2.32.277.203.464.534.56.992h1.28c-.053-.448-.171-.826-.352-1.136a2.336 2.336 0 00-.688-.752 2.435 2.435 0 00-.912-.4 4.404 4.404 0 00-1.072-.128c-.331 0-.667.054-1.008.16a2.91 2.91 0 00-.912.448 2.299 2.299 0 00-.656.736 1.94 1.94 0 00-.256 1.008c0 .363.048.678.144.944.107.267.272.496.496.688.224.192.523.358.896.496.373.128.832.24 1.376.336.651.118 1.136.272 1.456.464.331.192.496.507.496.944 0 .448-.144.784-.432 1.008-.288.214-.752.32-1.392.32-.672 0-1.157-.144-1.456-.432-.288-.288-.459-.682-.512-1.184h-1.296c.043.864.347 1.536.912 2.016z" fill="#000"/></svg>