<svg width="416" height="104" viewBox="0 0 416 104" fill="none" xmlns="http://www.w3.org/2000/svg">
<rect width="416" height="104" rx="16" fill="#F5F5F5"/>
<path d="M105.826 43.27H115.924V46.064H109.39V50.222H114.56V52.906H109.39V59H105.826V43.27ZM118.368 42.28H121.536V59H118.368V42.28ZM128.532 59.242C127.975 59.242 127.454 59.1613 126.97 59C126.501 58.824 126.09 58.56 125.738 58.208C125.386 57.856 125.107 57.4087 124.902 56.866C124.711 56.3087 124.616 55.656 124.616 54.908V47.494H127.784V54.468C127.784 55.2307 127.953 55.81 128.29 56.206C128.627 56.5873 129.126 56.778 129.786 56.778C130.461 56.778 131.025 56.5727 131.48 56.162C131.949 55.7367 132.184 55.0987 132.184 54.248V47.494H135.352V59H132.184V57.196C131.891 57.7827 131.443 58.274 130.842 58.67C130.255 59.0513 129.485 59.242 128.532 59.242ZM142.635 59.22C141.417 59.22 140.493 58.9193 139.863 58.318C139.232 57.702 138.917 56.7927 138.917 55.59V49.76H137.443V47.494H138.917V45.008H142.085V47.494H144.505V49.76H142.085V55.304C142.085 55.7587 142.187 56.1033 142.393 56.338C142.613 56.558 142.935 56.668 143.361 56.668C143.595 56.668 143.808 56.6533 143.999 56.624C144.204 56.58 144.395 56.5213 144.571 56.448V58.912C144.351 58.9853 144.079 59.0513 143.757 59.11C143.434 59.1833 143.06 59.22 142.635 59.22ZM151.185 59.22C149.968 59.22 149.044 58.9193 148.413 58.318C147.783 57.702 147.467 56.7927 147.467 55.59V49.76H145.993V47.494H147.467V45.008H150.635V47.494H153.055V49.76H150.635V55.304C150.635 55.7587 150.738 56.1033 150.943 56.338C151.163 56.558 151.486 56.668 151.911 56.668C152.146 56.668 152.359 56.6533 152.549 56.624C152.755 56.58 152.945 56.5213 153.121 56.448V58.912C152.901 58.9853 152.63 59.0513 152.307 59.11C151.985 59.1833 151.611 59.22 151.185 59.22ZM160.836 59.242C159.971 59.242 159.171 59.11 158.438 58.846C157.705 58.582 157.074 58.1933 156.546 57.68C156.003 57.1813 155.578 56.5727 155.27 55.854C154.977 55.1353 154.83 54.314 154.83 53.39V53.214C154.83 52.3047 154.977 51.4833 155.27 50.75C155.578 50.0167 156.003 49.386 156.546 48.858C157.074 48.3447 157.697 47.9487 158.416 47.67C159.135 47.3767 159.912 47.23 160.748 47.23C161.496 47.23 162.207 47.3473 162.882 47.582C163.557 47.802 164.151 48.1467 164.664 48.616C165.177 49.0853 165.588 49.694 165.896 50.442C166.204 51.1753 166.358 52.0553 166.358 53.082V53.962H158.064C158.108 54.93 158.372 55.678 158.856 56.206C159.355 56.7193 160.044 56.976 160.924 56.976C161.672 56.976 162.229 56.8293 162.596 56.536C162.977 56.2427 163.219 55.854 163.322 55.37H166.336C166.145 56.6167 165.573 57.5773 164.62 58.252C163.681 58.912 162.42 59.242 160.836 59.242ZM163.256 52.004C163.197 51.124 162.955 50.4787 162.53 50.068C162.105 49.6427 161.511 49.43 160.748 49.43C160.029 49.43 159.435 49.6573 158.966 50.112C158.511 50.552 158.225 51.1827 158.108 52.004H163.256ZM168.704 47.494H171.894V49.694C172.261 48.9167 172.737 48.33 173.324 47.934C173.911 47.538 174.673 47.3327 175.612 47.318V50.288C174.424 50.2733 173.507 50.486 172.862 50.926C172.217 51.366 171.894 52.136 171.894 53.236V59H168.704V47.494Z" fill="black"/>
<g clip-path="url(#clip0_207_337)">
<path d="M57.0594 24.0191L74.3833 24L45.3185 53.05L37.7436 60.5824L29.1252 51.9533L57.0594 24.0191ZM56.8982 49.9573C57.123 49.6603 57.5367 49.8067 57.8506 49.7685L74.3685 49.7727L59.3142 64.8121L50.6512 56.2021L56.8982 49.9573Z" fill="#44D1FD"/>
<path d="M42.0158 64.827L50.6512 56.2021L59.3142 64.8121L59.3503 64.8503L50.6533 73.4667L42.0158 64.827V64.827Z" fill="#1FBCFD"/>
<path d="M50.6533 73.4664L59.3503 64.8501L74.3749 79.8895C68.7155 79.9022 63.0582 79.8852 57.4009 79.8979C57.0785 79.9701 56.8791 79.6752 56.6733 79.4928L50.6533 73.4664V73.4664Z" fill="#08589C"/>
</g>
<defs>
<clipPath id="clip0_207_337">
<rect width="45.3939" height="56" fill="white" transform="translate(29 24)"/>
</clipPath>
</defs>
</svg>
