<svg width="416" height="104" viewBox="0 0 416 104" fill="none" xmlns="http://www.w3.org/2000/svg">
<rect width="416" height="104" rx="16" fill="#F5F5F5"/>
<path d="M80 39.5174C80 38.9368 80 38.409 80 37.8284C79.9472 36.6145 79.8944 35.3477 79.6833 34.1338C79.4722 32.9198 79.1027 31.7587 78.5221 30.6503C77.9415 29.5419 77.2554 28.5391 76.3581 27.6946C75.4608 26.7973 74.458 26.1112 73.4024 25.5306C72.294 24.95 71.1329 24.5805 69.9189 24.3694C68.705 24.1583 67.491 24.0527 66.2243 24.0527C65.6437 24.0527 65.1159 24.0527 64.5353 24.0527C63.8492 24.0527 63.2158 24.0527 62.5297 24.0527H47.6984H41.5758C40.8897 24.0527 40.2563 24.0527 39.5702 24.0527C38.9896 24.0527 38.4618 24.0527 37.8812 24.0527C37.5645 24.0527 37.2479 24.0527 36.9839 24.1055C36.0867 24.1583 35.1366 24.2111 34.2394 24.3694C33.3421 24.5278 32.4448 24.7917 31.6003 25.1083C31.3364 25.2139 31.0198 25.3723 30.7559 25.4778C29.9114 25.9001 29.1724 26.4279 28.4335 27.0084C28.2224 27.2196 27.9585 27.4307 27.7474 27.6418C26.8501 28.5391 26.164 29.5419 25.5834 30.5975C25.0028 31.7059 24.6333 32.8671 24.4222 34.081C24.2111 35.295 24.1583 36.5089 24.1055 37.7756C24.1055 38.3562 24.1055 38.884 24.1055 39.4646C24.1055 40.1508 24.1055 40.7841 24.1055 41.4703V50.6013V62.4241C24.1055 63.1102 24.1055 63.7436 24.1055 64.4297C24.1055 65.0103 24.1055 65.5381 24.1055 66.1187C24.1583 67.3327 24.2111 68.5994 24.4222 69.8133C24.6333 71.0273 25.0028 72.1884 25.5834 73.2968C26.164 74.4052 26.8501 75.4081 27.7474 76.2525C28.6446 77.1498 29.6475 77.836 30.7031 78.4165C31.8115 78.9971 32.9726 79.3666 34.1866 79.5777C35.4005 79.7888 36.6145 79.8944 37.8812 79.8944C38.4618 79.8944 38.9896 79.8944 39.5702 79.8944C40.2563 79.8944 40.8897 79.8944 41.5758 79.8944H62.5297C63.2158 79.8944 63.8492 79.8944 64.5353 79.8944C65.1159 79.8944 65.6437 79.8944 66.2243 79.8944C67.4382 79.8416 68.705 79.7888 69.9189 79.5777C71.1329 79.3666 72.294 78.9971 73.4024 78.4165C74.5108 77.836 75.5136 77.1498 76.3581 76.2525C77.2554 75.3553 77.9415 74.3524 78.5221 73.2968C79.1027 72.1884 79.4722 71.0273 79.6833 69.8133C79.8944 68.5994 80 67.3854 80 66.1187C80 65.5381 80 65.0103 80 64.4297C80 63.7436 80 63.1102 80 62.4241V41.4703C80 40.8369 80 40.2035 80 39.5174Z" fill="#F05138"/>
<path d="M68.3355 58.571C68.3883 58.3599 68.4411 58.1488 68.4939 57.9377C70.8162 48.7011 65.1687 37.7228 55.5627 31.9697C59.7851 37.67 61.6324 44.5842 59.9962 50.6012C59.8379 51.129 59.6795 51.6568 59.4684 52.1846C59.2573 52.0263 58.9934 51.8679 58.6239 51.7096C58.6239 51.7096 49.0707 45.7982 38.7257 35.4005C38.4618 35.1366 44.2677 43.687 50.8124 50.6012C47.6984 48.8594 39.0952 42.5786 33.606 37.6172C34.2922 38.7256 35.0839 39.834 35.9284 40.8368C40.4675 46.6427 46.4317 53.768 53.557 59.2572C48.5429 62.3185 41.4703 62.5824 34.4505 59.2572C32.7088 58.4655 31.0726 57.4627 29.5419 56.3543C32.4976 61.1045 37.0895 65.2214 42.6842 67.6493C49.3346 70.4994 55.9849 70.3411 60.8935 67.7021C60.8935 67.7021 60.9463 67.7021 60.9463 67.6493C61.1574 67.5437 61.3685 67.3854 61.5796 67.2798C63.9547 66.0659 68.5994 64.8519 71.1329 69.7077C71.8718 70.8161 73.1913 64.4824 68.3355 58.571Z" fill="white"/>
<path d="M111.326 59.242C110.241 59.242 109.302 59.1247 108.51 58.89C107.718 58.6407 107.058 58.2887 106.53 57.834C106.002 57.3793 105.599 56.8367 105.32 56.206C105.041 55.5753 104.88 54.864 104.836 54.072H108.246C108.29 54.424 108.363 54.7613 108.466 55.084C108.569 55.392 108.737 55.656 108.972 55.876C109.207 56.1107 109.507 56.3013 109.874 56.448C110.255 56.58 110.739 56.646 111.326 56.646C112.118 56.646 112.749 56.4553 113.218 56.074C113.687 55.678 113.922 55.172 113.922 54.556C113.922 54.248 113.871 53.984 113.768 53.764C113.68 53.544 113.526 53.3533 113.306 53.192C113.071 53.0453 112.763 52.9207 112.382 52.818C112.001 52.7007 111.524 52.598 110.952 52.51C109.94 52.378 109.075 52.202 108.356 51.982C107.652 51.7473 107.073 51.4393 106.618 51.058C106.149 50.6913 105.804 50.2367 105.584 49.694C105.379 49.1513 105.276 48.4987 105.276 47.736C105.276 47.0613 105.408 46.438 105.672 45.866C105.951 45.294 106.339 44.7953 106.838 44.37C107.337 43.9593 107.938 43.6367 108.642 43.402C109.346 43.1673 110.131 43.05 110.996 43.05C112.771 43.05 114.157 43.446 115.154 44.238C116.166 45.0153 116.745 46.1887 116.892 47.758H113.614C113.511 47.054 113.24 46.5333 112.8 46.196C112.36 45.844 111.759 45.668 110.996 45.668C110.204 45.668 109.61 45.8367 109.214 46.174C108.833 46.4967 108.642 46.922 108.642 47.45C108.642 47.7287 108.679 47.978 108.752 48.198C108.84 48.4033 108.994 48.5793 109.214 48.726C109.419 48.8873 109.713 49.0267 110.094 49.144C110.475 49.2613 110.967 49.364 111.568 49.452C112.521 49.5693 113.357 49.738 114.076 49.958C114.795 50.1633 115.396 50.442 115.88 50.794C116.364 51.1607 116.723 51.6227 116.958 52.18C117.207 52.7373 117.332 53.4193 117.332 54.226C117.332 54.93 117.193 55.59 116.914 56.206C116.635 56.8073 116.239 57.328 115.726 57.768C115.213 58.2227 114.582 58.582 113.834 58.846C113.086 59.11 112.25 59.242 111.326 59.242ZM118.621 47.494H121.965L124.011 55.238L126.233 47.494H128.851L130.875 55.238L133.053 47.494H136.111L132.481 59H129.357L127.399 51.784L125.287 59H122.119L118.621 47.494ZM139.76 45.932C139.247 45.932 138.814 45.7707 138.462 45.448C138.125 45.1107 137.956 44.6927 137.956 44.194C137.956 43.6953 138.125 43.2847 138.462 42.962C138.814 42.6247 139.247 42.456 139.76 42.456C140.274 42.456 140.706 42.6247 141.058 42.962C141.41 43.2847 141.586 43.6953 141.586 44.194C141.586 44.6927 141.41 45.1107 141.058 45.448C140.706 45.7707 140.274 45.932 139.76 45.932ZM138.198 47.494H141.366V59H138.198V47.494ZM145.084 49.76H143.566V47.494H145.084V46.174C145.084 44.8247 145.443 43.82 146.162 43.16C146.895 42.4853 147.907 42.148 149.198 42.148C149.535 42.148 149.828 42.17 150.078 42.214C150.342 42.2433 150.598 42.2947 150.848 42.368V44.766C150.686 44.7073 150.51 44.6633 150.32 44.634C150.129 44.59 149.916 44.568 149.682 44.568C149.168 44.568 148.802 44.7147 148.582 45.008C148.362 45.2867 148.252 45.646 148.252 46.086V47.494H150.76V49.76H148.252V59H145.084V49.76ZM157.287 59.22C156.07 59.22 155.146 58.9193 154.515 58.318C153.884 57.702 153.569 56.7927 153.569 55.59V49.76H152.095V47.494H153.569V45.008H156.737V47.494H159.157V49.76H156.737V55.304C156.737 55.7587 156.84 56.1033 157.045 56.338C157.265 56.558 157.588 56.668 158.013 56.668C158.248 56.668 158.46 56.6533 158.651 56.624C158.856 56.58 159.047 56.5213 159.223 56.448V58.912C159.003 58.9853 158.732 59.0513 158.409 59.11C158.086 59.1833 157.712 59.22 157.287 59.22Z" fill="black"/>
</svg>
