<svg width="416" height="104" viewBox="0 0 416 104" fill="none" xmlns="http://www.w3.org/2000/svg">
<rect width="416" height="104" rx="16" fill="#F5F5F5"/>
<path d="M105.826 43.27H109.39V50.046L114.89 43.248H118.674L112.448 50.706L118.982 59H114.824L109.39 51.938V59H105.826V43.27ZM125.388 56.822C126.283 56.822 126.972 56.514 127.456 55.898C127.955 55.282 128.204 54.424 128.204 53.324V53.17C128.204 52.07 127.955 51.212 127.456 50.596C126.972 49.9653 126.283 49.65 125.388 49.65C124.508 49.65 123.819 49.958 123.32 50.574C122.822 51.1753 122.572 52.026 122.572 53.126V53.302C122.572 54.402 122.814 55.2673 123.298 55.898C123.782 56.514 124.479 56.822 125.388 56.822ZM125.366 59.242C124.501 59.242 123.702 59.1027 122.968 58.824C122.235 58.5453 121.597 58.1493 121.054 57.636C120.512 57.1373 120.086 56.5287 119.778 55.81C119.47 55.0767 119.316 54.2627 119.316 53.368V53.192C119.316 52.2973 119.47 51.4833 119.778 50.75C120.086 50.002 120.512 49.3713 121.054 48.858C121.597 48.3447 122.235 47.9487 122.968 47.67C123.716 47.3767 124.523 47.23 125.388 47.23C126.254 47.23 127.053 47.3693 127.786 47.648C128.534 47.9267 129.18 48.3227 129.722 48.836C130.25 49.3493 130.668 49.9727 130.976 50.706C131.284 51.4247 131.438 52.2313 131.438 53.126V53.302C131.438 54.2113 131.284 55.0327 130.976 55.766C130.668 56.4993 130.243 57.1227 129.7 57.636C129.158 58.1493 128.512 58.5453 127.764 58.824C127.031 59.1027 126.232 59.242 125.366 59.242ZM138.037 59.22C136.82 59.22 135.896 58.9193 135.265 58.318C134.634 57.702 134.319 56.7927 134.319 55.59V49.76H132.845V47.494H134.319V45.008H137.487V47.494H139.907V49.76H137.487V55.304C137.487 55.7587 137.59 56.1033 137.795 56.338C138.015 56.558 138.338 56.668 138.763 56.668C138.998 56.668 139.21 56.6533 139.401 56.624C139.606 56.58 139.797 56.5213 139.973 56.448V58.912C139.753 58.9853 139.482 59.0513 139.159 59.11C138.836 59.1833 138.462 59.22 138.037 59.22ZM142.474 42.28H145.642V59H142.474V42.28ZM150.46 45.932C149.946 45.932 149.514 45.7707 149.162 45.448C148.824 45.1107 148.656 44.6927 148.656 44.194C148.656 43.6953 148.824 43.2847 149.162 42.962C149.514 42.6247 149.946 42.456 150.46 42.456C150.973 42.456 151.406 42.6247 151.758 42.962C152.11 43.2847 152.286 43.6953 152.286 44.194C152.286 44.6927 152.11 45.1107 151.758 45.448C151.406 45.7707 150.973 45.932 150.46 45.932ZM148.898 47.494H152.066V59H148.898V47.494ZM155.255 47.494H158.445V49.32C158.738 48.748 159.193 48.2567 159.809 47.846C160.425 47.4353 161.217 47.23 162.185 47.23C162.757 47.23 163.278 47.318 163.747 47.494C164.216 47.67 164.627 47.934 164.979 48.286C165.316 48.6527 165.58 49.122 165.771 49.694C165.962 50.2513 166.057 50.9113 166.057 51.674V59H162.867V52.136C162.867 51.344 162.706 50.7647 162.383 50.398C162.06 50.0167 161.547 49.826 160.843 49.826C160.154 49.826 159.582 50.0387 159.127 50.464C158.672 50.8747 158.445 51.5053 158.445 52.356V59H155.255V47.494Z" fill="black"/>
<path d="M24 80.0001L52.0933 51.9067L80 80.0001H24Z" fill="url(#paint0_linear_207_320)"/>
<path d="M24 24H52.0933L24 54.3333V24Z" fill="url(#paint1_linear_207_320)"/>
<path d="M52.0933 24L24 53.5867V80L52.0933 51.9067L80 24H52.0933Z" fill="url(#paint2_linear_207_320)"/>
<defs>
<linearGradient id="paint0_linear_207_320" x1="38.8954" y1="93.0801" x2="65.353" y2="66.6224" gradientUnits="userSpaceOnUse">
<stop offset="0.09677" stop-color="#0095D5"/>
<stop offset="0.3007" stop-color="#238AD9"/>
<stop offset="0.6211" stop-color="#557BDE"/>
<stop offset="0.8643" stop-color="#7472E2"/>
<stop offset="1" stop-color="#806EE3"/>
</linearGradient>
<linearGradient id="paint1_linear_207_320" x1="27.9286" y1="35.2552" x2="43.2952" y2="19.8887" gradientUnits="userSpaceOnUse">
<stop offset="0.1183" stop-color="#0095D5"/>
<stop offset="0.4178" stop-color="#3C83DC"/>
<stop offset="0.6962" stop-color="#6D74E1"/>
<stop offset="0.8333" stop-color="#806EE3"/>
</linearGradient>
<linearGradient id="paint2_linear_207_320" x1="14.5717" y1="75.4862" x2="66.6827" y2="23.3752" gradientUnits="userSpaceOnUse">
<stop offset="0.1075" stop-color="#C757BC"/>
<stop offset="0.2138" stop-color="#D0609A"/>
<stop offset="0.4254" stop-color="#E1725C"/>
<stop offset="0.6048" stop-color="#EE7E2F"/>
<stop offset="0.743" stop-color="#F58613"/>
<stop offset="0.8232" stop-color="#F88909"/>
</linearGradient>
</defs>
</svg>
