<svg width="416" height="104" viewBox="0 0 416 104" fill="none" xmlns="http://www.w3.org/2000/svg">
<rect width="416" height="104" rx="16" fill="#F5F5F5"/>
<path d="M105.826 43.27H111.458C112.382 43.27 113.218 43.3653 113.966 43.556C114.714 43.7467 115.352 44.04 115.88 44.436C116.408 44.832 116.811 45.3307 117.09 45.932C117.383 46.5333 117.53 47.2373 117.53 48.044V48.132C117.53 48.7333 117.449 49.2613 117.288 49.716C117.127 50.1707 116.899 50.5667 116.606 50.904C116.313 51.2413 115.968 51.5273 115.572 51.762C115.176 51.9967 114.751 52.18 114.296 52.312L118.454 59H114.67L110.908 52.928H109.368V59H105.826V43.27ZM111.37 50.508C112.265 50.508 112.932 50.3173 113.372 49.936C113.827 49.5547 114.054 48.99 114.054 48.242V48.154C114.054 47.3473 113.819 46.79 113.35 46.482C112.895 46.1593 112.235 45.998 111.37 45.998H109.368V50.508H111.37ZM125.451 59.242C124.586 59.242 123.787 59.11 123.053 58.846C122.32 58.582 121.689 58.1933 121.161 57.68C120.619 57.1813 120.193 56.5727 119.885 55.854C119.592 55.1353 119.445 54.314 119.445 53.39V53.214C119.445 52.3047 119.592 51.4833 119.885 50.75C120.193 50.0167 120.619 49.386 121.161 48.858C121.689 48.3447 122.313 47.9487 123.031 47.67C123.75 47.3767 124.527 47.23 125.363 47.23C126.111 47.23 126.823 47.3473 127.497 47.582C128.172 47.802 128.766 48.1467 129.279 48.616C129.793 49.0853 130.203 49.694 130.511 50.442C130.819 51.1753 130.973 52.0553 130.973 53.082V53.962H122.679C122.723 54.93 122.987 55.678 123.471 56.206C123.97 56.7193 124.659 56.976 125.539 56.976C126.287 56.976 126.845 56.8293 127.211 56.536C127.593 56.2427 127.835 55.854 127.937 55.37H130.951C130.761 56.6167 130.189 57.5773 129.235 58.252C128.297 58.912 127.035 59.242 125.451 59.242ZM127.871 52.004C127.813 51.124 127.571 50.4787 127.145 50.068C126.72 49.6427 126.126 49.43 125.363 49.43C124.645 49.43 124.051 49.6573 123.581 50.112C123.127 50.552 122.841 51.1827 122.723 52.004H127.871ZM136.529 59.242C136.001 59.242 135.502 59.176 135.033 59.044C134.578 58.912 134.175 58.7067 133.823 58.428C133.471 58.1493 133.192 57.7973 132.987 57.372C132.781 56.932 132.679 56.4113 132.679 55.81C132.679 55.1353 132.825 54.5633 133.119 54.094C133.412 53.6247 133.823 53.2433 134.351 52.95C134.879 52.6567 135.509 52.444 136.243 52.312C136.976 52.18 137.783 52.114 138.663 52.114H139.961V51.652C139.961 50.9627 139.829 50.442 139.565 50.09C139.315 49.7233 138.824 49.54 138.091 49.54C137.46 49.54 136.991 49.6867 136.683 49.98C136.389 50.2733 136.206 50.6693 136.133 51.168H133.119C133.163 50.4933 133.324 49.9067 133.603 49.408C133.896 48.9093 134.27 48.4987 134.725 48.176C135.179 47.8533 135.707 47.6187 136.309 47.472C136.925 47.3107 137.585 47.23 138.289 47.23C138.993 47.23 139.638 47.3107 140.225 47.472C140.811 47.6187 141.325 47.8607 141.765 48.198C142.19 48.5353 142.52 48.9753 142.755 49.518C142.989 50.0607 143.107 50.7207 143.107 51.498V59H140.005V57.614C139.667 58.0833 139.227 58.472 138.685 58.78C138.157 59.088 137.438 59.242 136.529 59.242ZM137.475 57.02C138.179 57.02 138.765 56.844 139.235 56.492C139.719 56.1253 139.961 55.6193 139.961 54.974V54.006H138.729C137.805 54.006 137.086 54.1233 136.573 54.358C136.059 54.5927 135.803 55.018 135.803 55.634C135.803 56.0593 135.935 56.3967 136.199 56.646C136.463 56.8953 136.888 57.02 137.475 57.02ZM151.317 59.242C150.481 59.242 149.696 59.1173 148.963 58.868C148.244 58.604 147.621 58.2227 147.093 57.724C146.565 57.2253 146.147 56.6167 145.839 55.898C145.545 55.1647 145.399 54.3287 145.399 53.39V53.214C145.399 52.29 145.553 51.4613 145.861 50.728C146.169 49.98 146.594 49.342 147.137 48.814C147.679 48.3007 148.31 47.912 149.029 47.648C149.747 47.3693 150.517 47.23 151.339 47.23C151.999 47.23 152.637 47.3107 153.253 47.472C153.883 47.6187 154.448 47.868 154.947 48.22C155.431 48.572 155.834 49.034 156.157 49.606C156.479 50.178 156.677 50.8747 156.751 51.696H153.737C153.634 51.036 153.385 50.5447 152.989 50.222C152.607 49.8993 152.079 49.738 151.405 49.738C150.569 49.738 149.901 50.0387 149.403 50.64C148.904 51.2267 148.655 52.07 148.655 53.17V53.346C148.655 54.5047 148.897 55.3773 149.381 55.964C149.879 56.5507 150.576 56.844 151.471 56.844C152.116 56.844 152.666 56.6607 153.121 56.294C153.59 55.9273 153.861 55.37 153.935 54.622H156.817C156.773 55.3113 156.619 55.942 156.355 56.514C156.091 57.0713 155.724 57.548 155.255 57.944C154.785 58.3547 154.221 58.6773 153.561 58.912C152.901 59.132 152.153 59.242 151.317 59.242ZM163.281 59.22C162.064 59.22 161.14 58.9193 160.509 58.318C159.878 57.702 159.563 56.7927 159.563 55.59V49.76H158.089V47.494H159.563V45.008H162.731V47.494H165.151V49.76H162.731V55.304C162.731 55.7587 162.834 56.1033 163.039 56.338C163.259 56.558 163.582 56.668 164.007 56.668C164.242 56.668 164.454 56.6533 164.645 56.624C164.85 56.58 165.041 56.5213 165.217 56.448V58.912C164.997 58.9853 164.726 59.0513 164.403 59.11C164.08 59.1833 163.706 59.22 163.281 59.22ZM172.793 43.27H176.929L182.913 53.632V43.27H186.081V59H182.517L175.961 47.802V59H172.793V43.27ZM192.431 59.242C191.903 59.242 191.404 59.176 190.935 59.044C190.48 58.912 190.077 58.7067 189.725 58.428C189.373 58.1493 189.094 57.7973 188.889 57.372C188.684 56.932 188.581 56.4113 188.581 55.81C188.581 55.1353 188.728 54.5633 189.021 54.094C189.314 53.6247 189.725 53.2433 190.253 52.95C190.781 52.6567 191.412 52.444 192.145 52.312C192.878 52.18 193.685 52.114 194.565 52.114H195.863V51.652C195.863 50.9627 195.731 50.442 195.467 50.09C195.218 49.7233 194.726 49.54 193.993 49.54C193.362 49.54 192.893 49.6867 192.585 49.98C192.292 50.2733 192.108 50.6693 192.035 51.168H189.021C189.065 50.4933 189.226 49.9067 189.505 49.408C189.798 48.9093 190.172 48.4987 190.627 48.176C191.082 47.8533 191.61 47.6187 192.211 47.472C192.827 47.3107 193.487 47.23 194.191 47.23C194.895 47.23 195.54 47.3107 196.127 47.472C196.714 47.6187 197.227 47.8607 197.667 48.198C198.092 48.5353 198.422 48.9753 198.657 49.518C198.892 50.0607 199.009 50.7207 199.009 51.498V59H195.907V57.614C195.57 58.0833 195.13 58.472 194.587 58.78C194.059 59.088 193.34 59.242 192.431 59.242ZM193.377 57.02C194.081 57.02 194.668 56.844 195.137 56.492C195.621 56.1253 195.863 55.6193 195.863 54.974V54.006H194.631C193.707 54.006 192.988 54.1233 192.475 54.358C191.962 54.5927 191.705 55.018 191.705 55.634C191.705 56.0593 191.837 56.3967 192.101 56.646C192.365 56.8953 192.79 57.02 193.377 57.02ZM206.207 59.22C204.99 59.22 204.066 58.9193 203.435 58.318C202.804 57.702 202.489 56.7927 202.489 55.59V49.76H201.015V47.494H202.489V45.008H205.657V47.494H208.077V49.76H205.657V55.304C205.657 55.7587 205.76 56.1033 205.965 56.338C206.185 56.558 206.508 56.668 206.933 56.668C207.168 56.668 207.38 56.6533 207.571 56.624C207.776 56.58 207.967 56.5213 208.143 56.448V58.912C207.923 58.9853 207.652 59.0513 207.329 59.11C207.006 59.1833 206.632 59.22 206.207 59.22ZM212.206 45.932C211.692 45.932 211.26 45.7707 210.908 45.448C210.57 45.1107 210.402 44.6927 210.402 44.194C210.402 43.6953 210.57 43.2847 210.908 42.962C211.26 42.6247 211.692 42.456 212.206 42.456C212.719 42.456 213.152 42.6247 213.504 42.962C213.856 43.2847 214.032 43.6953 214.032 44.194C214.032 44.6927 213.856 45.1107 213.504 45.448C213.152 45.7707 212.719 45.932 212.206 45.932ZM210.644 47.494H213.812V59H210.644V47.494ZM215.901 47.494H219.311L222.061 55.722L224.789 47.494H227.869L223.689 59H220.103L215.901 47.494ZM234.592 59.242C233.727 59.242 232.927 59.11 232.194 58.846C231.461 58.582 230.83 58.1933 230.302 57.68C229.759 57.1813 229.334 56.5727 229.026 55.854C228.733 55.1353 228.586 54.314 228.586 53.39V53.214C228.586 52.3047 228.733 51.4833 229.026 50.75C229.334 50.0167 229.759 49.386 230.302 48.858C230.83 48.3447 231.453 47.9487 232.172 47.67C232.891 47.3767 233.668 47.23 234.504 47.23C235.252 47.23 235.963 47.3473 236.638 47.582C237.313 47.802 237.907 48.1467 238.42 48.616C238.933 49.0853 239.344 49.694 239.652 50.442C239.96 51.1753 240.114 52.0553 240.114 53.082V53.962H231.82C231.864 54.93 232.128 55.678 232.612 56.206C233.111 56.7193 233.8 56.976 234.68 56.976C235.428 56.976 235.985 56.8293 236.352 56.536C236.733 56.2427 236.975 55.854 237.078 55.37H240.092C239.901 56.6167 239.329 57.5773 238.376 58.252C237.437 58.912 236.176 59.242 234.592 59.242ZM237.012 52.004C236.953 51.124 236.711 50.4787 236.286 50.068C235.861 49.6427 235.267 49.43 234.504 49.43C233.785 49.43 233.191 49.6573 232.722 50.112C232.267 50.552 231.981 51.1827 231.864 52.004H237.012Z" fill="black"/>
<g clip-path="url(#clip0_207_331)">
<path d="M52 56.9035C54.7566 56.9035 56.9913 54.6688 56.9913 51.9122C56.9913 49.1556 54.7566 46.9209 52 46.9209C49.2433 46.9209 47.0087 49.1556 47.0087 51.9122C47.0087 54.6688 49.2433 56.9035 52 56.9035Z" fill="#61DAFB"/>
<path d="M52 62.1382C66.7916 62.1382 78.7826 57.5598 78.7826 51.9121C78.7826 46.2644 66.7916 41.686 52 41.686C37.2084 41.686 25.2174 46.2644 25.2174 51.9121C25.2174 57.5598 37.2084 62.1382 52 62.1382Z" stroke="#61DAFB"/>
<path d="M43.144 57.025C50.5398 69.8349 60.5003 77.9302 65.3913 75.1064C70.2824 72.2825 68.2519 59.6088 60.8561 46.7989C53.4603 33.989 43.4998 25.8937 38.6087 28.7175C33.7177 31.5414 35.7482 44.2151 43.144 57.025Z" stroke="#61DAFB"/>
<path d="M43.144 46.7989C35.7482 59.6088 33.7177 72.2825 38.6087 75.1064C43.4998 77.9302 53.4603 69.8349 60.8561 57.025C68.2519 44.2151 70.2824 31.5414 65.3913 28.7175C60.5003 25.8937 50.5398 33.989 43.144 46.7989Z" stroke="#61DAFB"/>
</g>
<defs>
<clipPath id="clip0_207_331">
<rect width="56" height="49.8241" fill="white" transform="translate(24 27)"/>
</clipPath>
</defs>
</svg>
