<svg width="416" height="104" viewBox="0 0 416 104" fill="none" xmlns="http://www.w3.org/2000/svg">
<rect width="416" height="104" rx="16" fill="#F5F5F5"/>
<path d="M105.826 43.27H111.458C112.382 43.27 113.218 43.3653 113.966 43.556C114.714 43.7467 115.352 44.04 115.88 44.436C116.408 44.832 116.811 45.3307 117.09 45.932C117.383 46.5333 117.53 47.2373 117.53 48.044V48.132C117.53 48.7333 117.449 49.2613 117.288 49.716C117.127 50.1707 116.899 50.5667 116.606 50.904C116.313 51.2413 115.968 51.5273 115.572 51.762C115.176 51.9967 114.751 52.18 114.296 52.312L118.454 59H114.67L110.908 52.928H109.368V59H105.826V43.27ZM111.37 50.508C112.265 50.508 112.932 50.3173 113.372 49.936C113.827 49.5547 114.054 48.99 114.054 48.242V48.154C114.054 47.3473 113.819 46.79 113.35 46.482C112.895 46.1593 112.235 45.998 111.37 45.998H109.368V50.508H111.37ZM125.451 59.242C124.586 59.242 123.787 59.11 123.053 58.846C122.32 58.582 121.689 58.1933 121.161 57.68C120.619 57.1813 120.193 56.5727 119.885 55.854C119.592 55.1353 119.445 54.314 119.445 53.39V53.214C119.445 52.3047 119.592 51.4833 119.885 50.75C120.193 50.0167 120.619 49.386 121.161 48.858C121.689 48.3447 122.313 47.9487 123.031 47.67C123.75 47.3767 124.527 47.23 125.363 47.23C126.111 47.23 126.823 47.3473 127.497 47.582C128.172 47.802 128.766 48.1467 129.279 48.616C129.793 49.0853 130.203 49.694 130.511 50.442C130.819 51.1753 130.973 52.0553 130.973 53.082V53.962H122.679C122.723 54.93 122.987 55.678 123.471 56.206C123.97 56.7193 124.659 56.976 125.539 56.976C126.287 56.976 126.845 56.8293 127.211 56.536C127.593 56.2427 127.835 55.854 127.937 55.37H130.951C130.761 56.6167 130.189 57.5773 129.235 58.252C128.297 58.912 127.035 59.242 125.451 59.242ZM127.871 52.004C127.813 51.124 127.571 50.4787 127.145 50.068C126.72 49.6427 126.126 49.43 125.363 49.43C124.645 49.43 124.051 49.6573 123.581 50.112C123.127 50.552 122.841 51.1827 122.723 52.004H127.871ZM136.529 59.242C136.001 59.242 135.502 59.176 135.033 59.044C134.578 58.912 134.175 58.7067 133.823 58.428C133.471 58.1493 133.192 57.7973 132.987 57.372C132.781 56.932 132.679 56.4113 132.679 55.81C132.679 55.1353 132.825 54.5633 133.119 54.094C133.412 53.6247 133.823 53.2433 134.351 52.95C134.879 52.6567 135.509 52.444 136.243 52.312C136.976 52.18 137.783 52.114 138.663 52.114H139.961V51.652C139.961 50.9627 139.829 50.442 139.565 50.09C139.315 49.7233 138.824 49.54 138.091 49.54C137.46 49.54 136.991 49.6867 136.683 49.98C136.389 50.2733 136.206 50.6693 136.133 51.168H133.119C133.163 50.4933 133.324 49.9067 133.603 49.408C133.896 48.9093 134.27 48.4987 134.725 48.176C135.179 47.8533 135.707 47.6187 136.309 47.472C136.925 47.3107 137.585 47.23 138.289 47.23C138.993 47.23 139.638 47.3107 140.225 47.472C140.811 47.6187 141.325 47.8607 141.765 48.198C142.19 48.5353 142.52 48.9753 142.755 49.518C142.989 50.0607 143.107 50.7207 143.107 51.498V59H140.005V57.614C139.667 58.0833 139.227 58.472 138.685 58.78C138.157 59.088 137.438 59.242 136.529 59.242ZM137.475 57.02C138.179 57.02 138.765 56.844 139.235 56.492C139.719 56.1253 139.961 55.6193 139.961 54.974V54.006H138.729C137.805 54.006 137.086 54.1233 136.573 54.358C136.059 54.5927 135.803 55.018 135.803 55.634C135.803 56.0593 135.935 56.3967 136.199 56.646C136.463 56.8953 136.888 57.02 137.475 57.02ZM151.317 59.242C150.481 59.242 149.696 59.1173 148.963 58.868C148.244 58.604 147.621 58.2227 147.093 57.724C146.565 57.2253 146.147 56.6167 145.839 55.898C145.545 55.1647 145.399 54.3287 145.399 53.39V53.214C145.399 52.29 145.553 51.4613 145.861 50.728C146.169 49.98 146.594 49.342 147.137 48.814C147.679 48.3007 148.31 47.912 149.029 47.648C149.747 47.3693 150.517 47.23 151.339 47.23C151.999 47.23 152.637 47.3107 153.253 47.472C153.883 47.6187 154.448 47.868 154.947 48.22C155.431 48.572 155.834 49.034 156.157 49.606C156.479 50.178 156.677 50.8747 156.751 51.696H153.737C153.634 51.036 153.385 50.5447 152.989 50.222C152.607 49.8993 152.079 49.738 151.405 49.738C150.569 49.738 149.901 50.0387 149.403 50.64C148.904 51.2267 148.655 52.07 148.655 53.17V53.346C148.655 54.5047 148.897 55.3773 149.381 55.964C149.879 56.5507 150.576 56.844 151.471 56.844C152.116 56.844 152.666 56.6607 153.121 56.294C153.59 55.9273 153.861 55.37 153.935 54.622H156.817C156.773 55.3113 156.619 55.942 156.355 56.514C156.091 57.0713 155.724 57.548 155.255 57.944C154.785 58.3547 154.221 58.6773 153.561 58.912C152.901 59.132 152.153 59.242 151.317 59.242ZM163.281 59.22C162.064 59.22 161.14 58.9193 160.509 58.318C159.878 57.702 159.563 56.7927 159.563 55.59V49.76H158.089V47.494H159.563V45.008H162.731V47.494H165.151V49.76H162.731V55.304C162.731 55.7587 162.834 56.1033 163.039 56.338C163.259 56.558 163.582 56.668 164.007 56.668C164.242 56.668 164.454 56.6533 164.645 56.624C164.85 56.58 165.041 56.5213 165.217 56.448V58.912C164.997 58.9853 164.726 59.0513 164.403 59.11C164.08 59.1833 163.706 59.22 163.281 59.22ZM174.487 59.198C173.797 59.198 173.255 59.154 172.859 59.066C172.477 58.978 172.147 58.8607 171.869 58.714V55.986C172.133 56.0887 172.411 56.1767 172.705 56.25C172.998 56.3233 173.379 56.36 173.849 56.36C174.523 56.36 175.059 56.1767 175.455 55.81C175.865 55.4287 176.071 54.7833 176.071 53.874V43.27H179.657V53.918C179.657 55.7073 179.202 57.0347 178.293 57.9C177.383 58.7653 176.115 59.198 174.487 59.198ZM188.605 59.242C187.52 59.242 186.581 59.1247 185.789 58.89C184.997 58.6407 184.337 58.2887 183.809 57.834C183.281 57.3793 182.878 56.8367 182.599 56.206C182.321 55.5753 182.159 54.864 182.115 54.072H185.525C185.569 54.424 185.643 54.7613 185.745 55.084C185.848 55.392 186.017 55.656 186.251 55.876C186.486 56.1107 186.787 56.3013 187.153 56.448C187.535 56.58 188.019 56.646 188.605 56.646C189.397 56.646 190.028 56.4553 190.497 56.074C190.967 55.678 191.201 55.172 191.201 54.556C191.201 54.248 191.15 53.984 191.047 53.764C190.959 53.544 190.805 53.3533 190.585 53.192C190.351 53.0453 190.043 52.9207 189.661 52.818C189.28 52.7007 188.803 52.598 188.231 52.51C187.219 52.378 186.354 52.202 185.635 51.982C184.931 51.7473 184.352 51.4393 183.897 51.058C183.428 50.6913 183.083 50.2367 182.863 49.694C182.658 49.1513 182.555 48.4987 182.555 47.736C182.555 47.0613 182.687 46.438 182.951 45.866C183.23 45.294 183.619 44.7953 184.117 44.37C184.616 43.9593 185.217 43.6367 185.921 43.402C186.625 43.1673 187.41 43.05 188.275 43.05C190.05 43.05 191.436 43.446 192.433 44.238C193.445 45.0153 194.025 46.1887 194.171 47.758H190.893C190.791 47.054 190.519 46.5333 190.079 46.196C189.639 45.844 189.038 45.668 188.275 45.668C187.483 45.668 186.889 45.8367 186.493 46.174C186.112 46.4967 185.921 46.922 185.921 47.45C185.921 47.7287 185.958 47.978 186.031 48.198C186.119 48.4033 186.273 48.5793 186.493 48.726C186.699 48.8873 186.992 49.0267 187.373 49.144C187.755 49.2613 188.246 49.364 188.847 49.452C189.801 49.5693 190.637 49.738 191.355 49.958C192.074 50.1633 192.675 50.442 193.159 50.794C193.643 51.1607 194.003 51.6227 194.237 52.18C194.487 52.7373 194.611 53.4193 194.611 54.226C194.611 54.93 194.472 55.59 194.193 56.206C193.915 56.8073 193.519 57.328 193.005 57.768C192.492 58.2227 191.861 58.582 191.113 58.846C190.365 59.11 189.529 59.242 188.605 59.242Z" fill="black"/>
<g clip-path="url(#clip0_1208_8902)">
<path d="M52 56.9035C54.7566 56.9035 56.9913 54.6688 56.9913 51.9122C56.9913 49.1556 54.7566 46.9209 52 46.9209C49.2433 46.9209 47.0087 49.1556 47.0087 51.9122C47.0087 54.6688 49.2433 56.9035 52 56.9035Z" fill="#61DAFB"/>
<path d="M52 62.1382C66.7916 62.1382 78.7826 57.5598 78.7826 51.9121C78.7826 46.2644 66.7916 41.686 52 41.686C37.2084 41.686 25.2174 46.2644 25.2174 51.9121C25.2174 57.5598 37.2084 62.1382 52 62.1382Z" stroke="#61DAFB"/>
<path d="M43.144 57.025C50.5398 69.8349 60.5003 77.9302 65.3913 75.1064C70.2824 72.2825 68.2519 59.6088 60.8561 46.7989C53.4603 33.989 43.4998 25.8937 38.6087 28.7175C33.7177 31.5414 35.7482 44.2151 43.144 57.025Z" stroke="#61DAFB"/>
<path d="M43.144 46.7989C35.7482 59.6088 33.7177 72.2825 38.6087 75.1064C43.4998 77.9302 53.4603 69.8349 60.8561 57.025C68.2519 44.2151 70.2824 31.5414 65.3913 28.7175C60.5003 25.8937 50.5398 33.989 43.144 46.7989Z" stroke="#61DAFB"/>
</g>
<defs>
<clipPath id="clip0_1208_8902">
<rect width="56" height="49.8241" fill="white" transform="translate(24 27)"/>
</clipPath>
</defs>
</svg>
