<svg width="416" height="104" viewBox="0 0 416 104" fill="none" xmlns="http://www.w3.org/2000/svg">
<rect width="416" height="104" rx="16" fill="#F5F5F5"/>
<g clip-path="url(#clip0_1208_8910)">
<path d="M70 24H34C28.4772 24 24 28.4772 24 34V70C24 75.5229 28.4772 80 34 80H70C75.5229 80 80 75.5229 80 70V34C80 28.4772 75.5229 24 70 24Z" fill="#F6DD3B"/>
<path d="M40.0889 66.6666C41.0667 68.1777 41.8667 69.4222 43.6444 69.4222C45.3333 69.4222 46.4889 68.711 46.4889 66.1333V48.2666H51.7333V66.2222C51.7333 71.6444 48.5333 74.1333 43.9111 74.1333C39.7333 74.1333 37.2444 71.911 36 69.3333" fill="black"/>
<path d="M58.8444 66.2222C60 68.0889 61.4222 69.4222 64 69.4222C66.2222 69.4222 67.5555 68.3556 67.5555 66.8444C67.5555 65.0667 66.1333 64.4444 63.7333 63.3778L62.4 62.8444C58.5778 61.2444 56.0889 59.2 56.0889 54.9333C56.0889 51.0222 59.1111 48 63.8222 48C67.2 48 69.6 49.1556 71.2889 52.1778L67.2 54.8444C66.3111 53.2444 65.3333 52.6222 63.8222 52.6222C62.3111 52.6222 61.3333 53.6 61.3333 54.8444C61.3333 56.4444 62.3111 57.0667 64.5333 58.0444L65.8666 58.5778C70.3111 60.5333 72.8889 62.4889 72.8889 66.8444C72.8889 71.5556 69.1555 74.1333 64.1778 74.1333C59.2889 74.1333 56.0889 71.8222 54.5778 68.8" fill="black"/>
</g>
<path d="M104.55 43.27H108.312L112.052 55.348L115.792 43.27H119.136L113.9 59H109.808L104.55 43.27ZM123.23 59.242C122.702 59.242 122.203 59.176 121.734 59.044C121.279 58.912 120.876 58.7067 120.524 58.428C120.172 58.1493 119.893 57.7973 119.688 57.372C119.483 56.932 119.38 56.4113 119.38 55.81C119.38 55.1353 119.527 54.5633 119.82 54.094C120.113 53.6247 120.524 53.2433 121.052 52.95C121.58 52.6567 122.211 52.444 122.944 52.312C123.677 52.18 124.484 52.114 125.364 52.114H126.662V51.652C126.662 50.9627 126.53 50.442 126.266 50.09C126.017 49.7233 125.525 49.54 124.792 49.54C124.161 49.54 123.692 49.6867 123.384 49.98C123.091 50.2733 122.907 50.6693 122.834 51.168H119.82C119.864 50.4933 120.025 49.9067 120.304 49.408C120.597 48.9093 120.971 48.4987 121.426 48.176C121.881 47.8533 122.409 47.6187 123.01 47.472C123.626 47.3107 124.286 47.23 124.99 47.23C125.694 47.23 126.339 47.3107 126.926 47.472C127.513 47.6187 128.026 47.8607 128.466 48.198C128.891 48.5353 129.221 48.9753 129.456 49.518C129.691 50.0607 129.808 50.7207 129.808 51.498V59H126.706V57.614C126.369 58.0833 125.929 58.472 125.386 58.78C124.858 59.088 124.139 59.242 123.23 59.242ZM124.176 57.02C124.88 57.02 125.467 56.844 125.936 56.492C126.42 56.1253 126.662 55.6193 126.662 54.974V54.006H125.43C124.506 54.006 123.787 54.1233 123.274 54.358C122.761 54.5927 122.504 55.018 122.504 55.634C122.504 56.0593 122.636 56.3967 122.9 56.646C123.164 56.8953 123.589 57.02 124.176 57.02ZM132.804 47.494H135.994V49.32C136.287 48.748 136.742 48.2567 137.358 47.846C137.974 47.4353 138.766 47.23 139.734 47.23C140.306 47.23 140.826 47.318 141.296 47.494C141.765 47.67 142.176 47.934 142.528 48.286C142.865 48.6527 143.129 49.122 143.32 49.694C143.51 50.2513 143.606 50.9113 143.606 51.674V59H140.416V52.136C140.416 51.344 140.254 50.7647 139.932 50.398C139.609 50.0167 139.096 49.826 138.392 49.826C137.702 49.826 137.13 50.0387 136.676 50.464C136.221 50.8747 135.994 51.5053 135.994 52.356V59H132.804V47.494ZM148.247 45.932C147.733 45.932 147.301 45.7707 146.949 45.448C146.611 45.1107 146.443 44.6927 146.443 44.194C146.443 43.6953 146.611 43.2847 146.949 42.962C147.301 42.6247 147.733 42.456 148.247 42.456C148.76 42.456 149.193 42.6247 149.545 42.962C149.897 43.2847 150.073 43.6953 150.073 44.194C150.073 44.6927 149.897 45.1107 149.545 45.448C149.193 45.7707 148.76 45.932 148.247 45.932ZM146.685 47.494H149.853V59H146.685V47.494ZM153.13 42.28H156.298V59H153.13V42.28ZM159.554 42.28H162.722V59H159.554V42.28ZM168.992 59.242C168.464 59.242 167.965 59.176 167.496 59.044C167.041 58.912 166.638 58.7067 166.286 58.428C165.934 58.1493 165.655 57.7973 165.45 57.372C165.244 56.932 165.142 56.4113 165.142 55.81C165.142 55.1353 165.288 54.5633 165.582 54.094C165.875 53.6247 166.286 53.2433 166.814 52.95C167.342 52.6567 167.972 52.444 168.706 52.312C169.439 52.18 170.246 52.114 171.126 52.114H172.424V51.652C172.424 50.9627 172.292 50.442 172.028 50.09C171.778 49.7233 171.287 49.54 170.554 49.54C169.923 49.54 169.454 49.6867 169.146 49.98C168.852 50.2733 168.669 50.6693 168.596 51.168H165.582C165.626 50.4933 165.787 49.9067 166.066 49.408C166.359 48.9093 166.733 48.4987 167.188 48.176C167.642 47.8533 168.17 47.6187 168.772 47.472C169.388 47.3107 170.048 47.23 170.752 47.23C171.456 47.23 172.101 47.3107 172.688 47.472C173.274 47.6187 173.788 47.8607 174.228 48.198C174.653 48.5353 174.983 48.9753 175.218 49.518C175.452 50.0607 175.57 50.7207 175.57 51.498V59H172.468V57.614C172.13 58.0833 171.69 58.472 171.148 58.78C170.62 59.088 169.901 59.242 168.992 59.242ZM169.938 57.02C170.642 57.02 171.228 56.844 171.698 56.492C172.182 56.1253 172.424 55.6193 172.424 54.974V54.006H171.192C170.268 54.006 169.549 54.1233 169.036 54.358C168.522 54.5927 168.266 55.018 168.266 55.634C168.266 56.0593 168.398 56.3967 168.662 56.646C168.926 56.8953 169.351 57.02 169.938 57.02ZM185.422 59.198C184.733 59.198 184.19 59.154 183.794 59.066C183.413 58.978 183.083 58.8607 182.804 58.714V55.986C183.068 56.0887 183.347 56.1767 183.64 56.25C183.934 56.3233 184.315 56.36 184.784 56.36C185.459 56.36 185.994 56.1767 186.39 55.81C186.801 55.4287 187.006 54.7833 187.006 53.874V43.27H190.592V53.918C190.592 55.7073 190.138 57.0347 189.228 57.9C188.319 58.7653 187.05 59.198 185.422 59.198ZM199.541 59.242C198.456 59.242 197.517 59.1247 196.725 58.89C195.933 58.6407 195.273 58.2887 194.745 57.834C194.217 57.3793 193.814 56.8367 193.535 56.206C193.256 55.5753 193.095 54.864 193.051 54.072H196.461C196.505 54.424 196.578 54.7613 196.681 55.084C196.784 55.392 196.952 55.656 197.187 55.876C197.422 56.1107 197.722 56.3013 198.089 56.448C198.47 56.58 198.954 56.646 199.541 56.646C200.333 56.646 200.964 56.4553 201.433 56.074C201.902 55.678 202.137 55.172 202.137 54.556C202.137 54.248 202.086 53.984 201.983 53.764C201.895 53.544 201.741 53.3533 201.521 53.192C201.286 53.0453 200.978 52.9207 200.597 52.818C200.216 52.7007 199.739 52.598 199.167 52.51C198.155 52.378 197.29 52.202 196.571 51.982C195.867 51.7473 195.288 51.4393 194.833 51.058C194.364 50.6913 194.019 50.2367 193.799 49.694C193.594 49.1513 193.491 48.4987 193.491 47.736C193.491 47.0613 193.623 46.438 193.887 45.866C194.166 45.294 194.554 44.7953 195.053 44.37C195.552 43.9593 196.153 43.6367 196.857 43.402C197.561 43.1673 198.346 43.05 199.211 43.05C200.986 43.05 202.372 43.446 203.369 44.238C204.381 45.0153 204.96 46.1887 205.107 47.758H201.829C201.726 47.054 201.455 46.5333 201.015 46.196C200.575 45.844 199.974 45.668 199.211 45.668C198.419 45.668 197.825 45.8367 197.429 46.174C197.048 46.4967 196.857 46.922 196.857 47.45C196.857 47.7287 196.894 47.978 196.967 48.198C197.055 48.4033 197.209 48.5793 197.429 48.726C197.634 48.8873 197.928 49.0267 198.309 49.144C198.69 49.2613 199.182 49.364 199.783 49.452C200.736 49.5693 201.572 49.738 202.291 49.958C203.01 50.1633 203.611 50.442 204.095 50.794C204.579 51.1607 204.938 51.6227 205.173 52.18C205.422 52.7373 205.547 53.4193 205.547 54.226C205.547 54.93 205.408 55.59 205.129 56.206C204.85 56.8073 204.454 57.328 203.941 57.768C203.428 58.2227 202.797 58.582 202.049 58.846C201.301 59.11 200.465 59.242 199.541 59.242Z" fill="black"/>
<defs>
<clipPath id="clip0_1208_8910">
<rect width="56" height="56" fill="white" transform="translate(24 24)"/>
</clipPath>
</defs>
</svg>
